<svg height="24" viewBox="0 0 24 24" width="24" xmlns="http://www.w3.org/2000/svg"><path d="m4.37166667 7.23916667c.025-.24583334-.06916667-.48833334-.2525-.65333334l-1.86666667-2.25v-.33583333h5.79833333l4.48166667 9.8291667 3.94-9.8291667h5.5275v.33583333l-1.5966667 1.53083334c-.1375.105-.2058333.2775-.1775.44833333v11.2483333c-.0283333.17.04.3425.1775.4475l1.5591667 1.5308334v.3358333h-7.8433333v-.3358333l1.6158333-1.5683334c.1583333-.1583333.1583333-.205.1583333-.4475v-9.09166663l-4.4908333 11.40666663h-.6066667l-5.22916663-11.40666663v7.64500003c-.04333334.3208333.06333333.645.28916666.8766666l2.10083334 2.5483334v.3366666h-5.95666667v-.3366666l2.10083333-2.5483334c.225-.2325.325-.5583333.27083334-.8766666z" fill-rule="evenodd"/></svg>